# File created by Blade
# Date/Time:  Wed Jan 21 17:47:32 2015
# Frame Rate: 120.000 fps
#------------------------------------------------------
:FULLY-SPECIFIED
:DEGREES
593
root 12.721823 31.990663 -19.419334 -147.058775 41.351824 -217.531256
Spine 42.349590 14.906397 55.386799
Head -10.299123 23.797566 -33.864338
LeftShoulder -20.698482 -16.898957 15.656856
LeftArm -53.165103 3.778249 -21.184936
LeftForeArm -33.192492 -0.000000 -1.911831
LeftHand -13.870803 -0.000000 10.908881
LeftHandThumb1 -26.253704 0.000000 33.147579
RightShoulder 3.402288 7.046229 -36.886416
RightArm 3.578611 34.008639 -0.667314
RightForeArm -34.860133 -0.000000 6.398718
RightHand -6.175311 -0.000000 -9.704694
RightHandThumb1 -24.326973 -0.000000 -32.862282
LeftUpLeg -34.692991 -10.833210 -13.991458
LeftLeg -8.605070 -0.000000 0.000000
LeftFoot -25.523884 13.504908 -25.356551
LeftToeBase 24.865689 -0.000000 -0.000000
RightUpLeg -96.955871 -37.362242 6.606615
RightLeg -3.719945 -0.000000 0.000000
RightFoot 18.204626 -35.454492 -4.713265
RightToeBase 26.729248 -0.000000 -0.000000
594
root 12.724152 31.989669 -19.422073 -147.088788 41.328307 -217.560307
Spine 42.309481 14.894525 55.447516
Head -10.186762 23.830999 -33.804508
LeftShoulder -20.734546 -16.871293 15.693629
LeftArm -53.115516 3.798062 -21.105977
LeftForeArm -33.077293 -0.000000 -1.952013
LeftHand -13.308606 -0.000000 10.721181
LeftHandThumb1 -26.253704 0.000000 33.147579
RightShoulder 3.456077 6.989686 -36.927269
RightArm 3.578448 34.134216 -0.670926
RightForeArm -35.007176 -0.000000 6.330547
RightHand -6.183719 -0.000000 -9.735455
RightHandThumb1 -24.326973 -0.000000 -32.862282
LeftUpLeg -34.600155 -10.866014 -14.000357
LeftLeg -8.740446 -0.000000 0.000000
LeftFoot -25.432126 13.554324 -25.394788
LeftToeBase 24.797306 -0.000000 -0.000000
RightUpLeg -96.950646 -37.374024 6.562136
RightLeg -3.673068 -0.000000 0.000000
RightFoot 18.255478 -35.515840 -4.895670
RightToeBase 26.692079 -0.000000 -0.000000
595
root 12.727773 31.988616 -19.424465 -147.101926 41.300287 -217.556239
Spine 42.294719 14.886992 55.551483
Head -10.107579 23.827585 -33.772872
LeftShoulder -20.725888 -16.895301 15.746780
LeftArm -53.142738 3.805186 -21.029891
LeftForeArm -33.192698 -0.000000 -1.864615
LeftHand -13.712367 -0.000000 10.733252
LeftHandThumb1 -26.253704 0.000000 33.147579
RightShoulder 3.509939 6.987830 -36.971281
RightArm 3.512451 34.155151 -0.715509
RightForeArm -35.072385 -0.000000 6.329910
RightHand -6.233780 -0.000000 -9.740068
RightHandThumb1 -24.326973 -0.000000 -32.862282
LeftUpLeg -34.523226 -10.857731 -14.013789
LeftLeg -8.831717 -0.000000 0.000000
LeftFoot -25.356851 13.569221 -25.398899
LeftToeBase 24.729407 -0.000000 -0.000000
RightUpLeg -96.896415 -37.390053 6.510982
RightLeg -3.680427 -0.000000 0.000000
RightFoot 18.349121 -35.571209 -5.094857
RightToeBase 26.704139 -0.000000 -0.000000
596
root 12.733185 31.987224 -19.426977 -147.102392 41.281837 -217.510704
Spine 42.320341 14.887912 55.706766
Head -10.043956 23.825684 -33.774430
LeftShoulder -20.745875 -16.846566 15.758775
LeftArm -53.078969 3.737445 -20.943930
LeftForeArm -33.185785 -0.000000 -1.800743
LeftHand -13.821341 -0.000000 10.801653
LeftHandThumb1 -26.253704 0.000000 33.147579
RightShoulder 3.552519 7.012364 -37.030421
RightArm 3.406546 34.161240 -0.775624
RightForeArm -35.121822 -0.000000 6.390164
RightHand -6.343721 0.000000 -9.648192
RightHandThumb1 -24.326973 -0.000000 -32.862282
LeftUpLeg -34.442007 -10.818875 -14.011234
LeftLeg -8.913138 -0.000000 0.000000
LeftFoot -25.324998 13.590824 -25.393060
LeftToeBase 24.736499 -0.000000 -0.000000
RightUpLeg -96.797975 -37.378527 6.448443
RightLeg -3.688372 -0.000000 0.000000
RightFoot 18.408882 -35.642264 -5.269617
RightToeBase 26.698902 -0.000000 -0.000000
597
root 12.734640 31.988134 -19.426284 -147.068620 41.286934 -217.481507
Spine 42.326713 14.961015 55.829145
Head -9.986695 23.847885 -33.733749
LeftShoulder -20.744144 -16.856519 15.797080
LeftArm -53.056183 3.725996 -20.848159
LeftForeArm -33.200093 -0.000000 -1.738510
LeftHand -13.778964 -0.000000 10.609047
LeftHandThumb1 -26.253704 0.000000 33.147579
RightShoulder 3.569392 7.076081 -37.068164
RightArm 3.306042 34.191275 -0.825516
RightForeArm -35.218140 -0.000000 6.485640
RightHand -6.454666 -0.000000 -9.507123
RightHandThumb1 -24.326973 -0.000000 -32.862282
LeftUpLeg -34.439548 -10.767110 -14.035949
LeftLeg -8.944565 -0.000000 0.000000
LeftFoot -25.309254 13.616150 -25.384951
LeftToeBase 24.744773 -0.000000 -0.000000
RightUpLeg -96.747714 -37.355970 6.377303
RightLeg -3.702605 -0.000000 0.000000
RightFoot 18.486757 -35.729647 -5.348754
RightToeBase 26.720445 -0.000000 -0.000000
598
root 12.738396 31.987954 -19.426931 -147.061349 41.282760 -217.435638
Spine 42.368688 14.992129 55.986983
Head -9.978147 23.826066 -33.730198
LeftShoulder -20.717852 -16.882752 15.818615
LeftArm -53.054692 3.742893 -20.802189
LeftForeArm -33.237469 -0.000000 -1.714176
LeftHand -13.821389 -0.000000 10.512220
LeftHandThumb1 -26.253704 0.000000 33.147579
RightShoulder 3.589471 7.135943 -37.130754
RightArm 3.172234 34.265737 -0.892634
RightForeArm -35.343670 -0.000000 6.577614
RightHand -6.477085 -0.000000 -9.346002
RightHandThumb1 -24.326973 -0.000000 -32.862282
LeftUpLeg -34.401282 -10.688287 -14.067015
LeftLeg -8.962911 -0.000000 0.000000
LeftFoot -25.302816 13.614813 -25.363416
LeftToeBase 24.794708 -0.000000 -0.000000
RightUpLeg -96.659763 -37.343850 6.326717
RightLeg -3.721119 -0.000000 0.000000
RightFoot 18.542451 -35.744045 -5.436995
RightToeBase 26.698647 -0.000000 -0.000000
599
root 12.743464 31.988326 -19.427771 -147.071899 41.288729 -217.380538
Spine 42.457672 15.010273 56.161784
Head -10.023359 23.717984 -33.747968
LeftShoulder -20.681671 -16.920718 15.809904
LeftArm -53.056103 3.801873 -20.809430
LeftForeArm -33.200435 -0.000000 -1.684875
LeftHand -13.771826 -0.000000 10.610633
LeftHandThumb1 -26.253704 0.000000 33.147579
RightShoulder 3.578484 7.219970 -37.216234
RightArm 3.045676 34.235628 -0.952291
RightForeArm -35.366432 0.000000 6.655517
RightHand -6.521399 0.000000 -9.142683
RightHandThumb1 -24.326973 -0.000000 -32.862282
LeftUpLeg -34.344209 -10.592613 -14.099033
LeftLeg -8.976174 -0.000000 0.000000
LeftFoot -25.308829 13.627352 -25.363956
LeftToeBase 24.790324 -0.000000 -0.000000
RightUpLeg -96.520303 -37.324689 6.244627
RightLeg -3.756491 -0.000000 0.000000
RightFoot 18.596657 -35.773706 -5.510354
RightToeBase 26.702400 -0.000000 -0.000000
600
root 12.747019 31.989230 -19.427625 -147.088879 41.294658 -217.345673
Spine 42.535961 15.019960 56.298485
Head -10.102918 23.665146 -33.749241
LeftShoulder -20.676279 -16.933560 15.855957
LeftArm -53.052929 3.804677 -20.850903
LeftForeArm -33.297321 0.000000 -1.686899
LeftHand -13.652230 0.000000 10.662585
LeftHandThumb1 -26.253704 0.000000 33.147579
RightShoulder 3.559535 7.249365 -37.322995
RightArm 2.953991 34.274090 -0.955640
RightForeArm -35.334128 -0.000000 6.667312
RightHand -6.478934 -0.000000 -9.073416
RightHandThumb1 -24.326973 -0.000000 -32.862282
LeftUpLeg -34.296604 -10.469362 -14.171869
LeftLeg -8.979055 -0.000000 0.000000
LeftFoot -25.268144 13.608353 -25.300924
LeftToeBase 24.817203 -0.000000 -0.000000
RightUpLeg -96.417288 -37.315915 6.184679
RightLeg -3.781018 -0.000000 0.000000
RightFoot 18.652933 -35.770644 -5.584300
RightToeBase 26.731514 -0.000000 -0.000000
601
root 12.751532 31.991773 -19.426610 -147.102501 41.295650 -217.310786
Spine 42.613974 15.018825 56.426896
Head -10.220510 23.684202 -33.767427
LeftShoulder -20.673985 -16.935413 15.875383
LeftArm -53.064209 3.816639 -20.888457
LeftForeArm -33.306993 -0.000000 -1.699133
LeftHand -13.691163 0.000000 10.558213
LeftHandThumb1 -26.253704 0.000000 33.147579
RightShoulder 3.544162 7.286552 -37.443096
RightArm 2.845074 34.242861 -0.955989
RightForeArm -35.262313 -0.000000 6.698550
RightHand -6.433594 0.000000 -9.106995
RightHandThumb1 -24.326973 -0.000000 -32.862282
LeftUpLeg -34.253233 -10.351239 -14.234512
LeftLeg -8.978476 -0.000000 0.000000
LeftFoot -25.222506 13.550015 -25.287810
LeftToeBase 24.858973 -0.000000 -0.000000
RightUpLeg -96.333010 -37.303797 6.160949
RightLeg -3.810870 -0.000000 0.000000
RightFoot 18.667082 -35.749094 -5.587283
RightToeBase 26.638976 -0.000000 -0.000000
602
root 12.754807 31.994520 -19.425045 -147.118550 41.284513 -217.300009
Spine 42.662789 15.007603 56.507247
Head -10.386193 23.707033 -33.771231
LeftShoulder -20.698033 -16.956129 15.915711
LeftArm -53.115902 3.815528 -20.887178
LeftForeArm -33.218824 -0.000000 -1.642362
LeftHand -13.914468 0.000000 10.573552
LeftHandThumb1 -26.253704 0.000000 33.147579
RightShoulder 3.513898 7.333060 -37.536970
RightArm 2.798633 34.190649 -0.932971
RightForeArm -35.248713 -0.000000 6.689565
RightHand -6.431153 -0.000000 -9.042500
RightHandThumb1 -24.326973 -0.000000 -32.862282
LeftUpLeg -34.216378 -10.250883 -14.306717
LeftLeg -8.983827 -0.000000 0.000000
LeftFoot -25.149760 13.476966 -25.283682
LeftToeBase 24.853470 -0.000000 -0.000000
RightUpLeg -96.306415 -37.307389 6.198984
RightLeg -3.843950 -0.000000 0.000000
RightFoot 18.678557 -35.695597 -5.589610
RightToeBase 26.598490 -0.000000 -0.000000
603
root 12.758331 31.997553 -19.423259 -147.130590 41.273672 -217.284851
Spine 42.714255 15.003446 56.593460
Head -10.573729 23.627121 -33.775072
LeftShoulder -20.717998 -16.957464 15.967402
LeftArm -53.147665 3.773814 -20.900566
LeftForeArm -33.259049 -0.000000 -1.673967
LeftHand -13.693625 -0.000000 10.774446
LeftHandThumb1 -26.253704 0.000000 33.147579
RightShoulder 3.477082 7.362432 -37.642289
RightArm 2.743979 34.163541 -0.895645
RightForeArm -35.285099 -0.000000 6.691111
RightHand -6.420861 -0.000000 -8.939358
RightHandThumb1 -24.326973 -0.000000 -32.862282
LeftUpLeg -34.172802 -10.161258 -14.360438
LeftLeg -9.011304 -0.000000 0.000000
LeftFoot -25.066445 13.422470 -25.278474
LeftToeBase 24.854439 -0.000000 -0.000000
RightUpLeg -96.274386 -37.308372 6.231079
RightLeg -3.877780 -0.000000 0.000000
RightFoot 18.690840 -35.660149 -5.571761
RightToeBase 26.560835 -0.000000 -0.000000
